<svg width="32" height="32" viewBox="0 0 32 32" fill="none" xmlns="http://www.w3.org/2000/svg">
	<path d="M6.0062 1.4498C4.9937 1.84355 4.13745 2.36855 3.2812 3.2248C2.42495 4.07481 1.89995 4.9373 1.5062 5.94355C1.12495 6.91856 0.868701 8.03731 0.793701 9.67481C0.718701 11.3123 0.699951 11.8373 0.699951 16.0123C0.699951 20.1873 0.718701 20.7123 0.793701 22.3498C0.868701 23.9873 1.1312 25.1061 1.5062 26.0811C1.89995 27.0936 2.42495 27.9498 3.2812 28.8061C4.13745 29.6623 4.9937 30.1873 6.0062 30.5811C6.9812 30.9623 8.09995 31.2186 9.73745 31.2936C11.375 31.3686 11.9 31.3873 16.075 31.3873C20.25 31.3873 20.775 31.3686 22.4125 31.2936C24.05 31.2186 25.1687 30.9561 26.1437 30.5811C27.1562 30.1873 28.0124 29.6623 28.8687 28.8061C29.725 27.9498 30.25 27.0936 30.6437 26.0811C31.025 25.1061 31.2812 23.9873 31.3562 22.3498C31.4312 20.7123 31.45 20.1873 31.45 16.0123C31.45 11.8373 31.4312 11.3123 31.3562 9.67481C31.2812 8.03731 31.0187 6.91856 30.6437 5.94355C30.25 4.9373 29.725 4.07481 28.875 3.2248C28.0187 2.36855 27.1625 1.84355 26.15 1.4498C25.1749 1.06855 24.0562 0.812305 22.4187 0.737305C20.7812 0.662305 20.2562 0.643555 16.0812 0.643555C11.9062 0.643555 11.3812 0.662305 9.7437 0.737305C8.09995 0.806055 6.9812 1.06855 6.0062 1.4498ZM22.2875 3.4998C23.7875 3.56856 24.5999 3.81856 25.1437 4.03106C25.8624 4.31231 26.375 4.64356 26.9125 5.18106C27.45 5.71856 27.7812 6.23105 28.0625 6.94981C28.275 7.49356 28.525 8.30606 28.5937 9.80606C28.6687 11.4248 28.6812 11.9123 28.6812 16.0186C28.6812 20.1248 28.6625 20.6123 28.5937 22.2311C28.525 23.7311 28.275 24.5436 28.0625 25.0873C27.7812 25.8061 27.45 26.3186 26.9125 26.8561C26.375 27.3936 25.8624 27.7248 25.1437 28.0061C24.5999 28.2186 23.7875 28.4686 22.2875 28.5373C20.6687 28.6123 20.1812 28.6248 16.075 28.6248C11.9687 28.6248 11.4812 28.6061 9.86245 28.5373C8.36245 28.4686 7.54995 28.2186 7.0062 28.0061C6.28745 27.7248 5.77495 27.3936 5.23745 26.8561C4.69995 26.3186 4.3687 25.8061 4.08745 25.0873C3.87495 24.5436 3.62495 23.7311 3.5562 22.2311C3.4812 20.6123 3.4687 20.1248 3.4687 16.0186C3.4687 11.9123 3.48745 11.4248 3.5562 9.80606C3.62495 8.30606 3.87495 7.49356 4.08745 6.94981C4.3687 6.23105 4.69995 5.71856 5.23745 5.18106C5.77495 4.64356 6.28745 4.31231 7.0062 4.03106C7.54995 3.81856 8.36245 3.56856 9.86245 3.4998C11.4812 3.42481 11.9687 3.4123 16.075 3.4123C20.1812 3.4123 20.6687 3.42481 22.2875 3.4998Z" fill="url(#paint0_radial)">
	</path>
	<path d="M8.18115 16.0188C8.18115 20.3813 11.7187 23.9125 16.0749 23.9125C20.4312 23.9125 23.9687 20.375 23.9687 16.0188C23.9687 11.6625 20.4374 8.125 16.0749 8.125C11.7124 8.125 8.18115 11.6562 8.18115 16.0188ZM21.1999 16.0188C21.1999 18.85 18.9062 21.1438 16.0749 21.1438C13.2437 21.1438 10.9499 18.85 10.9499 16.0188C10.9499 13.1875 13.2437 10.8938 16.0749 10.8938C18.9062 10.8938 21.1999 13.1875 21.1999 16.0188Z" fill="url(#paint1_radial)">
	</path>
	<path d="M24.2876 9.65625C25.3059 9.65625 26.1313 8.83078 26.1313 7.8125C26.1313 6.79422 25.3059 5.96875 24.2876 5.96875C23.2693 5.96875 22.4438 6.79422 22.4438 7.8125C22.4438 8.83078 23.2693 9.65625 24.2876 9.65625Z" fill="#654C9F">
	</path>
	<defs>
		<radialGradient id="paint0_radial" cx="0" cy="0" r="1" gradientUnits="userSpaceOnUse" gradientTransform="translate(1.25945 28.5726) rotate(-3.00009) scale(44.4571 37.7881)">
			<stop stop-color="#FED576">
			</stop>
			<stop offset="0.2634" stop-color="#F47133">
			</stop>
			<stop offset="0.6091" stop-color="#BC3081">
			</stop>
			<stop offset="1" stop-color="#4C63D2">
			</stop>
		</radialGradient>
		<radialGradient id="paint1_radial" cx="0" cy="0" r="1" gradientUnits="userSpaceOnUse" gradientTransform="translate(8.46748 22.4648) rotate(-3.00009) scale(22.8293 19.4047)">
			<stop stop-color="#FED576">
			</stop>
			<stop offset="0.2634" stop-color="#F47133">
			</stop>
			<stop offset="0.6091" stop-color="#BC3081">
			</stop>
			<stop offset="1" stop-color="#4C63D2">
			</stop>
		</radialGradient>
	</defs>
</svg>
